<svg class="svg-icon" style="width: 1em; height: 1em;vertical-align: middle;fill: currentColor;overflow: hidden;" viewBox="0 0 1024 1024" version="1.1" xmlns="http://www.w3.org/2000/svg"><path d="M141.417 262.133S24.15 431.259 103.082 622.942c21.422 20.297 38.335 16.91 48.48-37.207-6.765-55.808-3.378-123.466 64.27-148.836s147.147 38.9 147.147 38.9 148.837 49.046 153.907-123.466 103.167-170.819 133.614-174.2 93.017-32.139 20.297-77.795-258.766-42.281-387.307 25.366c-116.698 77.795-142.066 136.43-142.066 136.43z m795.746 291.469s-9.302-76.114-41.433-15.224c-27.057 43.97-16.91 77.795-68.781 78.929s-95.844-56.38-145.45-19.169-14.656 113.876-14.656 113.876 35.847 65.394-11.956 91.325-80.503 7.892-92.898-56.373-31.578-152.211-151.092-27.058l-13.531 19.166s-21.422 54.119-62.015 69.906-91.326-50.736-100.35-56.38-105.986-9.016-45.1 41.718 166.866 161.233 347.273 136.43 320.212-94.715 394.635-325.856c5.635-23.68 5.357-51.303 5.357-51.303z"  /><path d="M949.169 220.006c4.986-14.958 4.045-26.487-2.81-34.59-8.1-6.861-19.633-7.787-34.595-2.816-14.961 4.987-28.365 13.398-40.203 25.244l-37.39 37.395-155.409-37.16c-2.492-0.776-4.835-0.154-7.005 1.864l-29.921 29.915c-1.711 1.714-2.41 3.818-2.103 6.311 0.463 2.494 1.787 4.368 3.973 5.613l118.723 65.204-60.537 60.537-45.34-12.386c-0.307-0.154-0.934-0.235-1.872-0.235-2.188 0-3.973 0.704-5.376 2.102l-22.43 22.672c-1.564 1.865-2.257 3.818-2.106 5.838 0.306 2.494 1.321 4.29 3.033 5.376l58.897 44.17 44.17 58.898c1.406 1.714 3.276 2.726 5.61 3.04h0.468c2.188 0 3.977-0.705 5.377-2.102l22.43-22.431c2.02-2.188 2.647-4.597 1.88-7.25l-12.388-45.34 60.537-60.538 65.204 118.726c0.933 2.02 2.566 3.269 4.901 3.744 0.463 0.154 1.02 0.226 1.634 0.226 1.86 0 3.344-0.463 4.441-1.397l29.919-22.43c2.646-2.189 3.584-4.752 2.808-7.714l-37.394-162.66 37.621-37.629c11.845-11.845 20.255-25.246 25.244-40.209zM110.97 643.24s-43.969 83.793 162.364-8.843 290.875-182.27 290.875-182.27 39.873-33.83 60.538-18.603 68.023 47.354 29.125 91.325-126.843 89.638-126.843 89.638-106.55 66.52-233.395 100.908-224.939 14.098-228.32-14.656c1.693-18.602-6.765-18.602 21.989-49.045 13.53-10.991 23.679-8.453 23.679-8.453z"  /></svg>